<svg width="287" height="60" viewBox="0 0 287 60" fill="none" xmlns="http://www.w3.org/2000/svg">
<g clip-path="url(#clip0_32_1525)">
<path d="M29.6886 5.95337V11.8805H13.894C12.8115 11.8805 11.7847 12.083 10.8134 12.4853C9.84211 12.8903 8.99522 13.4504 8.27006 14.1709C7.5502 14.8888 6.98384 15.7303 6.57627 16.698C6.1687 17.6631 5.96756 18.686 5.96756 19.7615C5.96756 20.837 6.17135 21.8494 6.57627 22.7934C6.98384 23.7348 7.54755 24.5684 8.27006 25.2863C8.99522 26.0042 9.84211 26.5643 10.8134 26.9693C11.7847 27.3742 12.8115 27.5767 13.894 27.5767H18.0967C19.9943 27.5767 21.7939 27.9343 23.4851 28.6522C25.1789 29.3701 26.6477 30.3589 27.8916 31.6158C29.1355 32.8728 30.1173 34.3427 30.8372 36.0257C31.5624 37.7113 31.9196 39.4968 31.9196 41.3796C31.9196 43.2624 31.5624 45.0532 30.8372 46.7335C30.1173 48.4191 29.1355 49.8759 27.8916 51.1118C26.6477 52.3477 25.1789 53.3233 23.4851 54.0412C21.7913 54.7591 19.9916 55.1167 18.0967 55.1167H2.23593V49.2579H18.0994C19.1818 49.2579 20.214 49.0554 21.1852 48.6531C22.1539 48.2481 22.9902 47.688 23.6915 46.9675C24.3929 46.2523 24.9539 45.4082 25.3853 44.4405C25.8167 43.4754 26.0284 42.4551 26.0284 41.377C26.0284 40.2988 25.8167 39.2785 25.3853 38.3134C24.9539 37.3484 24.3929 36.5069 23.6915 35.7864C22.9902 35.0711 22.1539 34.5084 21.1852 34.1034C20.214 33.6985 19.1818 33.4986 18.0994 33.4986H13.8966C11.9991 33.4986 10.2047 33.1384 8.50825 32.4205C6.81446 31.7052 5.33504 30.727 4.07263 29.4911C2.80493 28.2578 1.81248 26.7957 1.08732 25.1154C0.36746 23.4298 0.00488281 21.6469 0.00488281 19.7615C0.00488281 17.8761 0.36746 16.0327 1.08732 14.3734C1.81248 12.7115 2.80493 11.2547 4.07263 9.99772C5.33504 8.74076 6.81446 7.75203 8.50825 7.03414C10.2073 6.31626 12.0017 5.956 13.8966 5.956H29.6913L29.6886 5.95337Z" fill="#6A84FF"/>
<path d="M36.7207 5.95337H42.6172V27.5741H61.5268V5.95337H67.4233V55.1193H61.5268V33.5013H42.6172V55.1193H36.7207V5.95337Z" fill="#6A84FF"/>
<path d="M155.321 5.34877C158.664 5.34877 161.771 6.26913 164.642 8.10986C167.511 9.9506 169.848 12.4198 171.656 15.5201L166.437 18.347C165.216 16.1933 163.636 14.4657 161.691 13.164C159.746 11.8623 157.623 11.2102 155.321 11.2102C153.648 11.2102 152.079 11.5257 150.61 12.1516C149.144 12.7801 147.852 13.6452 146.749 14.7444C145.64 15.8462 144.769 17.1268 144.137 18.5863C143.504 20.0457 143.189 21.6051 143.189 23.2644V37.9455C143.189 39.6074 143.504 41.1694 144.137 42.6262C144.769 44.0857 145.64 45.3531 146.749 46.4313C147.852 47.5068 149.144 48.3641 150.61 48.9899C152.082 49.6184 153.648 49.9313 155.321 49.9313C157.623 49.9313 159.749 49.2923 161.691 48.0143C163.636 46.7337 165.219 45.0166 166.437 42.8603L171.656 45.7555C169.845 48.8085 167.519 51.2435 164.674 53.0606C161.824 54.8803 158.709 55.7875 155.318 55.7875C152.831 55.7875 150.496 55.3168 148.305 54.3754C146.114 53.4313 144.203 52.1533 142.578 50.5335C140.953 48.9189 139.661 47.0308 138.711 44.8772C137.764 42.7209 137.29 40.4095 137.29 37.9376V23.2565C137.29 20.7873 137.764 18.4653 138.711 16.288C139.659 14.1107 140.95 12.2121 142.578 10.5975C144.203 8.98027 146.114 7.70227 148.305 6.75824C150.496 5.81421 152.833 5.34351 155.318 5.34351L155.321 5.34877Z" fill="#AF15FF"/>
<path d="M194.13 5.34877C197.472 5.34877 200.579 6.26913 203.451 8.10986C206.32 9.9506 208.657 12.4198 210.464 15.5201L205.245 18.347C204.025 16.1933 202.445 14.4657 200.5 13.164C198.555 11.8623 196.432 11.2102 194.13 11.2102C192.457 11.2102 190.888 11.5257 189.419 12.1516C187.953 12.7801 186.661 13.6452 185.557 14.7444C184.448 15.8462 183.578 17.1268 182.945 18.5863C182.313 20.0457 181.998 21.6051 181.998 23.2644V37.9455C181.998 39.6074 182.313 41.1694 182.945 42.6262C183.578 44.0857 184.448 45.3531 185.557 46.4313C186.661 47.5068 187.953 48.3641 189.419 48.9899C190.89 49.6184 192.457 49.9313 194.13 49.9313C196.432 49.9313 198.557 49.2923 200.5 48.0143C202.445 46.7337 204.028 45.0166 205.245 42.8603L210.464 45.7555C208.654 48.8085 206.328 51.2435 203.482 53.0606C200.632 54.8803 197.517 55.7875 194.127 55.7875C191.639 55.7875 189.305 55.3168 187.114 54.3754C184.922 53.4313 183.011 52.1533 181.386 50.5335C179.761 48.9189 178.47 47.0308 177.52 44.8772C176.572 42.7209 176.099 40.4095 176.099 37.9376V23.2565C176.099 20.7873 176.572 18.4653 177.52 16.288C178.467 14.1107 179.759 12.2121 181.386 10.5975C183.011 8.98027 184.922 7.70227 187.114 6.75824C189.305 5.81421 191.642 5.34351 194.127 5.34351L194.13 5.34877Z" fill="#AF15FF"/>
<path d="M215.318 5.95337H221.215V27.5741H240.124V5.95337H246.021V55.1193H240.124V33.5013H221.215V55.1193H215.318V5.95337Z" fill="#AF15FF"/>
<path d="M287 37.9454C287 40.4173 286.527 42.7287 285.579 44.885C284.632 47.0387 283.34 48.9241 281.713 50.5413C280.088 52.1585 278.177 53.4365 275.986 54.3832C273.794 55.3246 271.457 55.7953 268.972 55.7953C266.487 55.7953 264.081 55.3246 261.89 54.3832C259.699 53.4391 257.788 52.1612 256.163 50.5413C254.538 48.9267 253.246 47.0387 252.296 44.885C251.349 42.7287 250.875 40.4173 250.875 37.9454V23.2643C250.875 20.7951 251.349 18.4731 252.296 16.2958C253.244 14.1185 254.535 12.2199 256.163 10.6053C257.788 8.98808 259.699 7.71009 261.89 6.76605C264.081 5.82202 266.442 5.35132 268.972 5.35132C271.502 5.35132 273.794 5.82202 275.986 6.76605C278.177 7.70746 280.088 8.98808 281.713 10.6053C283.338 12.2199 284.629 14.1185 285.579 16.2958C286.527 18.4731 287 20.7977 287 23.2643V37.9454ZM281.104 23.2643C281.104 21.6024 280.789 20.043 280.156 18.5862C279.524 17.1267 278.653 15.8461 277.544 14.7443C276.435 13.6451 275.149 12.78 273.683 12.1515C272.211 11.523 270.645 11.2101 268.972 11.2101C267.3 11.2101 265.73 11.5257 264.261 12.1515C262.795 12.78 261.504 13.6451 260.4 14.7443C259.291 15.8461 258.42 17.1267 257.788 18.5862C257.155 20.0456 256.84 21.605 256.84 23.2643V37.9454C256.84 39.6074 257.155 41.1693 257.788 42.6262C258.42 44.0856 259.291 45.3531 260.4 46.4312C261.504 47.5067 262.795 48.364 264.261 48.9898C265.733 49.6183 267.3 49.9312 268.972 49.9312C270.645 49.9312 272.214 49.6183 273.683 48.9898C275.149 48.3614 276.435 47.5067 277.544 46.4312C278.653 45.3557 279.524 44.0856 280.156 42.6262C280.789 41.1667 281.104 39.6074 281.104 37.9454V23.2643Z" fill="#AF15FF"/>
<path fill-rule="evenodd" clip-rule="evenodd" d="M102.35 20.1955C107.796 20.1955 112.205 24.5869 112.205 29.9961C112.205 35.4052 107.794 39.8072 102.35 39.8072C96.9058 39.8072 92.5046 35.4157 92.5046 29.9961C92.5046 24.5764 96.9164 20.1955 102.35 20.1955ZM107.894 49.7682C108.331 50.6228 108.58 51.58 108.58 52.5976V54.7066C106.587 55.2036 104.504 55.4639 102.35 55.4639C100.195 55.4639 98.1258 55.2036 96.133 54.7066V52.5976C96.133 51.58 96.3818 50.6254 96.8184 49.7682C97.8532 47.7723 99.9467 46.3944 102.352 46.3944C104.758 46.3944 106.862 47.7723 107.897 49.7682H107.894ZM113.14 53.1051V52.5976C113.14 50.9857 112.777 49.4473 112.131 48.0694C111.459 46.6547 110.498 45.4161 109.315 44.409C107.434 42.8207 105.004 41.8662 102.35 41.8662C99.6952 41.8662 97.2789 42.8207 95.3972 44.409C94.2142 45.4135 93.2403 46.6547 92.5813 48.0694C91.9329 49.4473 91.573 50.9857 91.573 52.5976V58.0173C93.0445 58.5879 94.5636 59.0349 96.133 59.3557C98.1391 59.7765 100.219 60 102.35 60C104.48 60 106.574 59.7765 108.58 59.3557C110.149 59.0323 111.671 58.5879 113.14 58.0173C117.165 56.4789 120.778 54.1097 123.768 51.1093L128.196 55.0589L131.298 51.7351L126.719 47.6592L123.355 44.5457L119.666 41.1351C121.76 37.9349 122.969 34.1009 122.969 29.9961C122.969 18.6703 113.735 9.47977 102.347 9.47977C90.959 9.47977 81.7357 18.6703 81.7357 29.9961C81.7357 36.173 84.4776 41.7057 88.802 45.4635C89.5246 44.1118 90.4482 42.8838 91.5174 41.803C88.3018 38.8763 86.2958 34.6715 86.2958 29.9934C86.2958 21.1737 93.4864 14.0159 102.344 14.0159C111.202 14.0159 118.406 21.1737 118.406 29.9934C118.406 32.9097 117.634 35.6366 116.263 37.9822C115.49 39.3102 114.542 40.5119 113.433 41.5664L116.773 44.6562L120.426 48.0168C118.319 50.1126 115.852 51.8377 113.137 53.1025L113.14 53.1051ZM87.1585 50.4887C80.865 45.8605 76.7655 38.4056 76.7655 29.9961C76.7655 15.9407 88.2304 4.53083 102.347 4.53083C116.464 4.53083 127.929 15.9434 127.929 29.9961C127.929 33.7433 127.119 37.3011 125.661 40.4909L129.162 43.7279C131.279 39.6099 132.489 34.945 132.489 29.9961C132.494 13.4347 118.999 0 102.35 0C85.7003 0 72.2188 13.4347 72.2188 29.9934C72.2188 40.9958 78.1629 50.6096 87.0236 55.8321V52.595C87.0236 51.8745 87.0738 51.1803 87.1612 50.486L87.1585 50.4887ZM102.35 24.7237C105.277 24.7237 107.645 27.093 107.645 29.9961C107.645 32.8992 105.277 35.2684 102.35 35.2684C99.4227 35.2684 97.054 32.9123 97.054 29.9961C97.054 27.0798 99.4332 24.7237 102.35 24.7237Z" fill="url(#paint0_linear_32_1525)"/>
</g>
<defs>
<linearGradient id="paint0_linear_32_1525" x1="72.2188" y1="30.0013" x2="132.494" y2="30.0013" gradientUnits="userSpaceOnUse">
<stop stop-color="#6A84FF"/>
<stop offset="0.21" stop-color="#7572FF"/>
<stop offset="0.62" stop-color="#9144FF"/>
<stop offset="1" stop-color="#AF15FF"/>
</linearGradient>
<clipPath id="clip0_32_1525">
<rect width="287" height="60" fill="white"/>
</clipPath>
</defs>
</svg>
