<svg width="16" height="16" viewBox="0 0 16 16" fill="none" xmlns="http://www.w3.org/2000/svg">
<path d="M10.3847 11.1804L14.914 15.7107C14.9663 15.763 15.0284 15.8045 15.0967 15.8328C15.165 15.8611 15.2383 15.8757 15.3122 15.8757C15.3862 15.8757 15.4594 15.8611 15.5278 15.8328C15.5961 15.8045 15.6582 15.763 15.7105 15.7107C15.7628 15.6584 15.8043 15.5963 15.8326 15.528C15.8609 15.4597 15.8754 15.3864 15.8754 15.3125C15.8754 15.2385 15.8609 15.1653 15.8326 15.0969C15.8043 15.0286 15.7628 14.9665 15.7105 14.9142L1.08548 0.289228C1.03319 0.236929 0.971097 0.195443 0.902765 0.167139C0.834433 0.138835 0.761196 0.124268 0.687234 0.124268C0.613272 0.124268 0.540035 0.138835 0.471703 0.167139C0.403371 0.195443 0.341283 0.236929 0.288984 0.289228C0.236685 0.341527 0.195199 0.403615 0.166895 0.471947C0.138591 0.540279 0.124023 0.613516 0.124023 0.687478C0.124023 0.76144 0.138591 0.834678 0.166895 0.903009C0.195199 0.971341 0.236685 1.03343 0.288984 1.08573L3.92273 4.71948C3.42816 5.06983 2.98315 5.48533 2.59973 5.95473C2.05681 6.62091 1.63181 7.37503 1.34311 8.18448C1.31948 8.2531 1.29023 8.3476 1.29023 8.3476L1.26998 8.41735C1.26998 8.41735 1.18448 8.97648 1.66936 9.10473C1.81347 9.14282 1.9668 9.12215 2.09568 9.04727C2.22457 8.97239 2.31846 8.84941 2.35673 8.70535L2.35786 8.70198L2.36686 8.67385L2.40623 8.55123C2.65144 7.86782 3.01092 7.23101 3.46936 6.66798C3.82975 6.22502 4.25626 5.84026 4.73386 5.52723L6.50911 7.30248C6.15087 7.52701 5.84786 7.82943 5.62262 8.18722C5.39737 8.54502 5.2557 8.94899 5.20812 9.3691C5.16055 9.78921 5.2083 10.2146 5.34783 10.6137C5.48735 11.0128 5.71506 11.3754 6.01402 11.6743C6.31298 11.9733 6.67549 12.201 7.0746 12.3405C7.4737 12.48 7.89913 12.5278 8.31924 12.4802C8.73934 12.4326 9.14332 12.291 9.50111 12.0657C9.85891 11.8405 10.1613 11.5375 10.3859 11.1792L10.3847 11.1804ZM9.55223 10.3479C9.44425 10.6021 9.2755 10.826 9.0608 10.9998C8.8461 11.1736 8.59201 11.2921 8.32084 11.3447C8.04967 11.3974 7.76972 11.3827 7.50555 11.3019C7.24139 11.2212 7.00109 11.0768 6.80576 10.8815C6.61043 10.6861 6.46604 10.4458 6.38526 10.1817C6.30448 9.91749 6.28979 9.63754 6.34248 9.36637C6.39516 9.0952 6.51361 8.84111 6.68742 8.62641C6.86124 8.41171 7.0851 8.24296 7.33936 8.13498L9.55448 10.349L9.55223 10.3479ZM6.10973 3.72498L7.07048 4.68573C7.36298 4.64635 7.67236 4.62498 7.99973 4.62498C10.2992 4.62498 11.6965 5.65098 12.5312 6.6691C12.9898 7.23208 13.3493 7.8689 13.5944 8.55235C13.6135 8.60635 13.6259 8.64798 13.6337 8.67498L13.6427 8.7031V8.70648L13.6439 8.7076C13.6855 8.848 13.7802 8.96663 13.9079 9.03828C14.0356 9.10993 14.1863 9.12895 14.3278 9.0913C14.4693 9.05366 14.5905 8.9623 14.6658 8.83666C14.741 8.71102 14.7643 8.561 14.7306 8.41848V8.4151L14.7295 8.4106L14.725 8.39598C14.7055 8.32492 14.683 8.25473 14.6575 8.1856C14.3688 7.37615 13.9438 6.62203 13.4009 5.95585C12.3929 4.72398 10.6952 3.49998 8.00198 3.49998C7.30673 3.49998 6.67786 3.58098 6.11086 3.72385L6.10973 3.72498Z" fill="#BB83FF"/>
</svg>
